<svg height="480pt" viewBox="0 -24 480 480" width="480pt" xmlns="http://www.w3.org/2000/svg"><path d="m152 48v-40h-112v104h432v-64zm0 0" fill="#79bd9a"/><path d="m40 80h400v32h-400zm0 0" fill="#a8dba8"/><path d="m472 112h-464v312h464v-64h-232c-88.367188 0-160-71.632812-160-160v-88zm0 0" fill="#cff09e"/><path d="m344 272c0 57.4375-46.5625 104-104 104s-104-46.5625-104-104 46.5625-104 104-104 104 46.5625 104 104zm0 0" fill="#79bd9a"/><path d="m272 280v-64h-64v64h-32l64 64 64-64zm0 0" fill="#a8dba8"/><g fill="#3b8686"><path d="m472 40h-312v-32c0-4.417969-3.582031-8-8-8h-112c-4.417969 0-8 3.582031-8 8v96h-24c-4.417969 0-8 3.582031-8 8v312c0 4.417969 3.582031 8 8 8h464c4.417969 0 8-3.582031 8-8v-376c0-4.417969-3.582031-8-8-8zm-328-24v32c0 4.417969 3.582031 8 8 8h312v48h-16v-24c0-4.417969-3.582031-8-8-8h-392v-56zm-96 72h384v16h-384zm416 328h-448v-296h448zm0 0"/><path d="m280 272v-56c0-4.417969-3.582031-8-8-8h-64c-4.417969 0-8 3.582031-8 8v56h-24c-3.230469.015625-6.132812 1.972656-7.359375 4.960938-1.253906 2.976562-.589844 6.417968 1.679687 8.71875l64 64c1.53125 1.460937 3.5625 2.289062 5.679688 2.320312 2.125.011719 4.171875-.824219 5.679688-2.320312l64-64c2.269531-2.300782 2.933593-5.742188 1.679687-8.71875-1.226563-2.988282-4.128906-4.945313-7.359375-4.960938zm-40 60.71875-44.71875-44.71875h12.71875c4.417969 0 8-3.582031 8-8v-56h48v56c0 4.417969 3.582031 8 8 8h12.71875zm0 0"/><path d="m240 160c-61.855469 0-112 50.144531-112 112s50.144531 112 112 112 112-50.144531 112-112-50.144531-112-112-112zm0 208c-53.019531 0-96-42.980469-96-96s42.980469-96 96-96 96 42.980469 96 96-42.980469 96-96 96zm0 0"/></g></svg>