<svg width="258" height="223" viewBox="0 0 258 223" fill="none" xmlns="http://www.w3.org/2000/svg">
<path d="M89.2891 105.089C84.3904 98.4909 89.1002 89.1282 97.3182 89.1282H157.692C166.072 89.1282 170.735 98.8167 165.508 105.366L163.369 108.046C161.472 110.423 158.595 111.808 155.553 111.808H99.3078C96.1431 111.808 93.1652 110.31 91.2787 107.769L89.2891 105.089Z" fill="#F7F7F7"/>
<path d="M118.194 164.372C117.817 163.655 117.62 162.857 117.62 162.046V94.1282C117.62 91.3668 119.859 89.1282 122.62 89.1282H135.267C138.029 89.1282 140.267 91.3668 140.267 94.1282L140.267 162.046C140.267 162.857 140.07 163.655 139.694 164.372L133.37 176.407C131.496 179.973 126.391 179.973 124.518 176.407L118.194 164.372Z" fill="#F7F7F7"/>
<path d="M39.0193 184.751C31.3213 184.751 26.51 176.417 30.359 169.751L56.4361 124.584C60.2851 117.917 69.9076 117.917 73.7566 124.584L74.4818 125.84C76.2666 128.931 76.2682 132.74 74.4861 135.832L67.1932 148.49C63.3539 155.153 68.1589 163.475 75.8491 163.482L90.457 163.495C94.0265 163.498 97.3238 165.403 99.1085 168.495L99.8337 169.751C103.683 176.417 98.8715 184.751 91.1734 184.751L39.0193 184.751Z" fill="#3ECF83"/>
<path d="M227.169 169.751C231.018 176.417 226.207 184.751 218.509 184.751L166.355 184.751C158.657 184.751 153.845 176.417 157.694 169.751L158.42 168.495C160.204 165.403 163.502 163.498 167.071 163.495L181.679 163.482C189.369 163.475 194.174 155.153 190.335 148.49L183.042 135.832C181.26 132.739 181.261 128.931 183.046 125.84L183.771 124.584C187.62 117.917 197.243 117.917 201.092 124.584L227.169 169.751Z" fill="#3ECF83"/>
<path d="M119.85 14.9143C123.703 8.27056 133.297 8.27057 137.15 14.9143L163.29 59.9828C167.157 66.6495 162.347 75 154.64 75H153.158C149.596 75 146.302 73.1048 144.512 70.0247L137.146 57.3499C133.291 50.7162 123.709 50.7163 119.854 57.3499L112.488 70.0247C110.698 73.1048 107.404 75 103.842 75L102.36 75C94.6534 75 89.8433 66.6495 93.71 59.9828L119.85 14.9143Z" fill="#3ECF83"/>
</svg>
