<svg width="866" height="721" viewBox="0 0 866 721" fill="none" xmlns="http://www.w3.org/2000/svg">
<g clip-path="url(#clip0)">
<g opacity="0.8">
<path opacity="0.8" d="M866 0H455V458.72H866V0Z" fill="url(#paint0_linear)"/>
</g>
<path d="M859.2 306.27H461.79V448.73H859.2V306.27Z" fill="white"/>
<path d="M509.81 340.06H494.41V413.06H509.81V340.06Z" fill="#64FFDA"/>
<g opacity="0.7">
<path opacity="0.7" d="M540.21 340.06H524.81V413.06H540.21V340.06Z" fill="#64FFDA"/>
</g>
<g opacity="0.6">
<path opacity="0.6" d="M570.62 340.06H555.22V413.06H570.62V340.06Z" fill="#64FFDA"/>
</g>
<g opacity="0.5">
<path opacity="0.5" d="M601.02 340.06H585.62V413.06H601.02V340.06Z" fill="#64FFDA"/>
</g>
<g opacity="0.5">
<path opacity="0.5" d="M631.42 340.06H616.02V413.06H631.42V340.06Z" fill="#64FFDA"/>
</g>
<g opacity="0.4">
<path opacity="0.4" d="M661.82 340.06H646.42V413.06H661.82V340.06Z" fill="#64FFDA"/>
</g>
<g opacity="0.3">
<path opacity="0.3" d="M692.23 340.06H676.83V413.06H692.23V340.06Z" fill="#64FFDA"/>
</g>
<path d="M802.94 413.25C823.463 413.25 840.1 396.613 840.1 376.09C840.1 355.567 823.463 338.93 802.94 338.93C782.417 338.93 765.78 355.567 765.78 376.09C765.78 396.613 782.417 413.25 802.94 413.25Z" fill="#4285F4"/>
<path d="M859.2 158.26H461.79V300.72H859.2V158.26Z" fill="white"/>
<path d="M509.81 192.05H494.41V265.05H509.81V192.05Z" fill="#64FFDA"/>
<g opacity="0.7">
<path opacity="0.7" d="M540.21 192.05H524.81V265.05H540.21V192.05Z" fill="#64FFDA"/>
</g>
<g opacity="0.6">
<path opacity="0.6" d="M570.62 192.05H555.22V265.05H570.62V192.05Z" fill="#64FFDA"/>
</g>
<g opacity="0.5">
<path opacity="0.5" d="M601.02 192.05H585.62V265.05H601.02V192.05Z" fill="#64FFDA"/>
</g>
<g opacity="0.5">
<path opacity="0.5" d="M631.42 192.05H616.02V265.05H631.42V192.05Z" fill="#64FFDA"/>
</g>
<g opacity="0.4">
<path opacity="0.4" d="M661.82 192.05H646.42V265.05H661.82V192.05Z" fill="#64FFDA"/>
</g>
<g opacity="0.3">
<path opacity="0.3" d="M692.23 192.05H676.83V265.05H692.23V192.05Z" fill="#64FFDA"/>
</g>
<path d="M802.94 265.25C823.463 265.25 840.1 248.613 840.1 228.09C840.1 207.567 823.463 190.93 802.94 190.93C782.417 190.93 765.78 207.567 765.78 228.09C765.78 248.613 782.417 265.25 802.94 265.25Z" fill="#4285F4"/>
<path d="M859.2 10.25H461.79V152.71H859.2V10.25Z" fill="white"/>
<path d="M509.81 44.05H494.41V117.05H509.81V44.05Z" fill="#64FFDA"/>
<g opacity="0.7">
<path opacity="0.7" d="M540.21 44.05H524.81V117.05H540.21V44.05Z" fill="#64FFDA"/>
</g>
<g opacity="0.6">
<path opacity="0.6" d="M570.62 44.05H555.22V117.05H570.62V44.05Z" fill="#64FFDA"/>
</g>
<g opacity="0.5">
<path opacity="0.5" d="M601.02 44.05H585.62V117.05H601.02V44.05Z" fill="#64FFDA"/>
</g>
<g opacity="0.5">
<path opacity="0.5" d="M631.42 44.05H616.02V117.05H631.42V44.05Z" fill="#64FFDA"/>
</g>
<g opacity="0.4">
<path opacity="0.4" d="M661.82 44.05H646.42V117.05H661.82V44.05Z" fill="#64FFDA"/>
</g>
<g opacity="0.3">
<path opacity="0.3" d="M692.23 44.05H676.83V117.05H692.23V44.05Z" fill="#64FFDA"/>
</g>
<path d="M802.94 120.14C825.065 120.14 843 102.205 843 80.08C843 57.9555 825.065 40.02 802.94 40.02C780.815 40.02 762.88 57.9555 762.88 80.08C762.88 102.205 780.815 120.14 802.94 120.14Z" fill="url(#paint1_linear)"/>
<path d="M802.94 269.14C825.065 269.14 843 251.205 843 229.08C843 206.955 825.065 189.02 802.94 189.02C780.815 189.02 762.88 206.955 762.88 229.08C762.88 251.205 780.815 269.14 802.94 269.14Z" fill="url(#paint2_linear)"/>
<path d="M802.94 417.14C825.065 417.14 843 399.205 843 377.08C843 354.955 825.065 337.02 802.94 337.02C780.815 337.02 762.88 354.955 762.88 377.08C762.88 399.205 780.815 417.14 802.94 417.14Z" fill="url(#paint3_linear)"/>
<path d="M802.94 117.24C823.463 117.24 840.1 100.603 840.1 80.08C840.1 59.5571 823.463 42.92 802.94 42.92C782.417 42.92 765.78 59.5571 765.78 80.08C765.78 100.603 782.417 117.24 802.94 117.24Z" fill="#4285F4"/>
<g opacity="0.8">
<path opacity="0.8" d="M583.13 695.37H33.07V344.19C33.07 342.115 33.4787 340.061 34.2727 338.144C35.0667 336.227 36.2305 334.485 37.6977 333.018C39.1649 331.551 40.9067 330.387 42.8236 329.593C44.7406 328.799 46.7951 328.39 48.87 328.39H567.32C569.395 328.39 571.449 328.799 573.366 329.593C575.283 330.387 577.025 331.551 578.492 333.018C579.959 334.485 581.123 336.227 581.917 338.144C582.711 340.061 583.12 342.115 583.12 344.19L583.13 695.37Z" fill="url(#paint4_linear)"/>
</g>
<path d="M56.45 334.85H559.75C563.94 334.85 567.959 336.515 570.922 339.478C573.885 342.441 575.55 346.46 575.55 350.65V695.37H40.65V350.65C40.65 346.46 42.3146 342.441 45.2777 339.478C48.2408 336.515 52.2596 334.85 56.45 334.85V334.85Z" fill="white"/>
<path d="M558.33 355.82H57.87V684.07H558.33V355.82Z" fill="#F5F5F5"/>
<path opacity="0.8" d="M558.13 371.76H59.79V667.08H558.13V371.76Z" fill="#E0E0E0"/>
<path d="M558.13 356.07H59.79V371.76H558.13V356.07Z" fill="#F5F5F5"/>
<path d="M70.47 367.47C72.5687 367.47 74.27 365.769 74.27 363.67C74.27 361.571 72.5687 359.87 70.47 359.87C68.3713 359.87 66.67 361.571 66.67 363.67C66.67 365.769 68.3713 367.47 70.47 367.47Z" fill="#FF5252"/>
<path d="M80.93 367.47C83.0287 367.47 84.73 365.769 84.73 363.67C84.73 361.571 83.0287 359.87 80.93 359.87C78.8313 359.87 77.13 361.571 77.13 363.67C77.13 365.769 78.8313 367.47 80.93 367.47Z" fill="#FFFF00"/>
<path d="M91.4 367.47C93.4987 367.47 95.2 365.769 95.2 363.67C95.2 361.571 93.4987 359.87 91.4 359.87C89.3013 359.87 87.6 361.571 87.6 363.67C87.6 365.769 89.3013 367.47 91.4 367.47Z" fill="#69F0AE"/>
<g opacity="0.8">
<path opacity="0.8" d="M598.52 718.96C567.9 721.28 42.06 720.35 23.68 718.96C-0.40999 707.35 1.70652e-05 662.31 1.70652e-05 662.31L241.15 660.7L241.96 674.41H345.2L349.2 662.31H616.48C616.48 662.31 621.79 703.64 598.52 718.96Z" fill="url(#paint5_linear)"/>
</g>
<path d="M612.56 665.94H350.5C351.531 667.101 352.201 668.537 352.43 670.073C352.659 671.608 352.436 673.177 351.788 674.589C351.14 676 350.096 677.192 348.782 678.019C347.469 678.847 345.942 679.275 344.39 679.25H244.39C242.838 679.275 241.311 678.847 239.998 678.019C238.684 677.192 237.64 676 236.992 674.589C236.344 673.177 236.121 671.608 236.35 670.073C236.579 668.537 237.249 667.101 238.28 665.94H3.63C3.63 665.94 3.23 705.06 27.02 715.14C45.17 716.35 564.58 717.14 594.82 715.14C617.81 701.83 612.56 665.94 612.56 665.94Z" fill="#F5F5F5"/>
<path d="M58.07 677.63C59.8539 677.63 61.3 676.184 61.3 674.4C61.3 672.616 59.8539 671.17 58.07 671.17C56.2861 671.17 54.84 672.616 54.84 674.4C54.84 676.184 56.2861 677.63 58.07 677.63Z" fill="#E0E0E0"/>
<path d="M67.75 677.63C69.5339 677.63 70.98 676.184 70.98 674.4C70.98 672.616 69.5339 671.17 67.75 671.17C65.9661 671.17 64.52 672.616 64.52 674.4C64.52 676.184 65.9661 677.63 67.75 677.63Z" fill="#E0E0E0"/>
<path d="M77.43 677.63C79.2139 677.63 80.66 676.184 80.66 674.4C80.66 672.616 79.2139 671.17 77.43 671.17C75.6461 671.17 74.2 672.616 74.2 674.4C74.2 676.184 75.6461 677.63 77.43 677.63Z" fill="#E0E0E0"/>
<g opacity="0.7">
<path opacity="0.7" d="M292.55 383.37L195.49 443.1C195.49 443.1 195.49 566.3 292.55 633.49C389.61 566.29 389.61 443.1 389.61 443.1L292.55 383.37Z" fill="url(#paint6_linear)"/>
</g>
<path d="M292.55 390.42L201 446.79C201 446.79 201 563.05 292.6 626.46C384.2 563.05 384.2 446.79 384.2 446.79L292.55 390.42Z" fill="#4285F4"/>
<path opacity="0.05" d="M294.11 390.42L292.54 391.42V625.42L294.11 626.52C385.71 563.11 385.71 446.85 385.71 446.85L294.11 390.42Z" fill="black"/>
<path d="M292.55 404.04L211.55 453.9C211.55 453.9 211.55 556.74 292.55 612.84C373.55 556.74 373.55 453.9 373.55 453.9L292.55 404.04Z" fill="#4285F4"/>
<path opacity="0.08" d="M292.55 404.43V613.19C373.55 557.09 373.55 454.25 373.55 454.25L292.55 404.43Z" fill="black"/>
<path d="M239 306.38V99.38H410" stroke="#3AD29F" stroke-width="2" stroke-miterlimit="10" stroke-dasharray="12 12"/>
<path d="M186 243.38V36.38H357" stroke="#3AD29F" stroke-width="2" stroke-miterlimit="10" stroke-dasharray="12 12"/>
<path d="M716 477.38V639.38H626" stroke="#3AD29F" stroke-width="2" stroke-miterlimit="10" stroke-dasharray="12 12"/>
<path d="M770 513.38V675.38H680" stroke="#3AD29F" stroke-width="2" stroke-miterlimit="10" stroke-dasharray="12 12"/>
</g>
<defs>
<linearGradient id="paint0_linear" x1="660.5" y1="458.72" x2="660.5" y2="0" gradientUnits="userSpaceOnUse">
<stop stop-color="#808080" stop-opacity="0.25"/>
<stop offset="0.54" stop-color="#808080" stop-opacity="0.12"/>
<stop offset="1" stop-color="#808080" stop-opacity="0.1"/>
</linearGradient>
<linearGradient id="paint1_linear" x1="65094.4" y1="9665.64" x2="65094.4" y2="3246.42" gradientUnits="userSpaceOnUse">
<stop stop-color="#808080" stop-opacity="0.25"/>
<stop offset="0.54" stop-color="#808080" stop-opacity="0.12"/>
<stop offset="1" stop-color="#808080" stop-opacity="0.1"/>
</linearGradient>
<linearGradient id="paint2_linear" x1="65094.4" y1="21752.5" x2="65094.4" y2="15333.3" gradientUnits="userSpaceOnUse">
<stop stop-color="#808080" stop-opacity="0.25"/>
<stop offset="0.54" stop-color="#808080" stop-opacity="0.12"/>
<stop offset="1" stop-color="#808080" stop-opacity="0.1"/>
</linearGradient>
<linearGradient id="paint3_linear" x1="65094.4" y1="33758.3" x2="65094.4" y2="27339.1" gradientUnits="userSpaceOnUse">
<stop stop-color="#808080" stop-opacity="0.25"/>
<stop offset="0.54" stop-color="#808080" stop-opacity="0.12"/>
<stop offset="1" stop-color="#808080" stop-opacity="0.1"/>
</linearGradient>
<linearGradient id="paint4_linear" x1="261367" y1="288474" x2="261367" y2="153803" gradientUnits="userSpaceOnUse">
<stop stop-color="#808080" stop-opacity="0.25"/>
<stop offset="0.54" stop-color="#808080" stop-opacity="0.12"/>
<stop offset="1" stop-color="#808080" stop-opacity="0.1"/>
</linearGradient>
<linearGradient id="paint5_linear" x1="293384" y1="49006.7" x2="293384" y2="45444.9" gradientUnits="userSpaceOnUse">
<stop stop-color="#808080" stop-opacity="0.25"/>
<stop offset="0.54" stop-color="#808080" stop-opacity="0.12"/>
<stop offset="1" stop-color="#808080" stop-opacity="0.1"/>
</linearGradient>
<linearGradient id="paint6_linear" x1="89403.3" y1="181298" x2="89403.3" y2="118735" gradientUnits="userSpaceOnUse">
<stop stop-color="#808080" stop-opacity="0.25"/>
<stop offset="0.54" stop-color="#808080" stop-opacity="0.12"/>
<stop offset="1" stop-color="#808080" stop-opacity="0.1"/>
</linearGradient>
<clipPath id="clip0">
<rect width="866" height="720.37" fill="white"/>
</clipPath>
</defs>
</svg>
