<svg width="993" height="699" viewBox="0 0 993 699" fill="none" xmlns="http://www.w3.org/2000/svg">
<path d="M289.706 614.938L235.439 560.001C222.306 575.311 222.839 598.546 237.302 613.052C251.631 627.693 274.583 628.233 289.706 614.938Z" fill="#DD342E"/>
<g opacity="0.8">
<path opacity="0.8" d="M993 0H582V458.72H993V0Z" fill="url(#paint0_linear)"/>
</g>
<path d="M986.201 306.27H588.791V448.73H986.201V306.27Z" fill="white"/>
<path d="M636.811 340.06H621.411V413.06H636.811V340.06Z" fill="#64FFDA"/>
<g opacity="0.7">
<path opacity="0.7" d="M667.211 340.06H651.811V413.06H667.211V340.06Z" fill="#64FFDA"/>
</g>
<g opacity="0.6">
<path opacity="0.6" d="M697.62 340.06H682.22V413.06H697.62V340.06Z" fill="#64FFDA"/>
</g>
<g opacity="0.5">
<path opacity="0.5" d="M728.021 340.06H712.621V413.06H728.021V340.06Z" fill="#64FFDA"/>
</g>
<g opacity="0.5">
<path opacity="0.5" d="M758.42 340.06H743.021V413.06H758.42V340.06Z" fill="#64FFDA"/>
</g>
<g opacity="0.4">
<path opacity="0.4" d="M788.82 340.06H773.42V413.06H788.82V340.06Z" fill="#64FFDA"/>
</g>
<g opacity="0.3">
<path opacity="0.3" d="M819.231 340.06H803.831V413.06H819.231V340.06Z" fill="#64FFDA"/>
</g>
<path d="M929.94 413.25C950.463 413.25 967.1 396.613 967.1 376.09C967.1 355.567 950.463 338.93 929.94 338.93C909.418 338.93 892.781 355.567 892.781 376.09C892.781 396.613 909.418 413.25 929.94 413.25Z" fill="#4285F4"/>
<path d="M986.201 158.26H588.791V300.72H986.201V158.26Z" fill="white"/>
<path d="M636.811 192.05H621.411V265.05H636.811V192.05Z" fill="#64FFDA"/>
<g opacity="0.7">
<path opacity="0.7" d="M667.211 192.05H651.811V265.05H667.211V192.05Z" fill="#64FFDA"/>
</g>
<g opacity="0.6">
<path opacity="0.6" d="M697.62 192.05H682.22V265.05H697.62V192.05Z" fill="#64FFDA"/>
</g>
<g opacity="0.5">
<path opacity="0.5" d="M728.021 192.05H712.621V265.05H728.021V192.05Z" fill="#64FFDA"/>
</g>
<g opacity="0.5">
<path opacity="0.5" d="M758.42 192.05H743.021V265.05H758.42V192.05Z" fill="#64FFDA"/>
</g>
<g opacity="0.4">
<path opacity="0.4" d="M788.82 192.05H773.42V265.05H788.82V192.05Z" fill="#64FFDA"/>
</g>
<g opacity="0.3">
<path opacity="0.3" d="M819.231 192.05H803.831V265.05H819.231V192.05Z" fill="#64FFDA"/>
</g>
<path d="M929.94 265.25C950.463 265.25 967.1 248.613 967.1 228.09C967.1 207.567 950.463 190.93 929.94 190.93C909.418 190.93 892.781 207.567 892.781 228.09C892.781 248.613 909.418 265.25 929.94 265.25Z" fill="#4285F4"/>
<path d="M986.201 10.25H588.791V152.71H986.201V10.25Z" fill="white"/>
<path d="M636.811 44.05H621.411V117.05H636.811V44.05Z" fill="#64FFDA"/>
<g opacity="0.7">
<path opacity="0.7" d="M667.211 44.05H651.811V117.05H667.211V44.05Z" fill="#64FFDA"/>
</g>
<g opacity="0.6">
<path opacity="0.6" d="M697.62 44.05H682.22V117.05H697.62V44.05Z" fill="#64FFDA"/>
</g>
<g opacity="0.5">
<path opacity="0.5" d="M728.021 44.05H712.621V117.05H728.021V44.05Z" fill="#64FFDA"/>
</g>
<g opacity="0.5">
<path opacity="0.5" d="M758.42 44.05H743.021V117.05H758.42V44.05Z" fill="#64FFDA"/>
</g>
<g opacity="0.4">
<path opacity="0.4" d="M788.82 44.05H773.42V117.05H788.82V44.05Z" fill="#64FFDA"/>
</g>
<g opacity="0.3">
<path opacity="0.3" d="M819.231 44.05H803.831V117.05H819.231V44.05Z" fill="#64FFDA"/>
</g>
<path d="M929.94 120.14C952.065 120.14 970 102.205 970 80.08C970 57.9555 952.065 40.02 929.94 40.02C907.816 40.02 889.88 57.9555 889.88 80.08C889.88 102.205 907.816 120.14 929.94 120.14Z" fill="url(#paint1_linear)"/>
<path d="M929.94 269.14C952.065 269.14 970 251.205 970 229.08C970 206.955 952.065 189.02 929.94 189.02C907.816 189.02 889.88 206.955 889.88 229.08C889.88 251.205 907.816 269.14 929.94 269.14Z" fill="url(#paint2_linear)"/>
<path d="M929.94 417.14C952.065 417.14 970 399.205 970 377.08C970 354.955 952.065 337.02 929.94 337.02C907.816 337.02 889.88 354.955 889.88 377.08C889.88 399.205 907.816 417.14 929.94 417.14Z" fill="url(#paint3_linear)"/>
<path d="M929.94 117.24C950.463 117.24 967.1 100.603 967.1 80.0799C967.1 59.557 950.463 42.9199 929.94 42.9199C909.418 42.9199 892.781 59.557 892.781 80.0799C892.781 100.603 909.418 117.24 929.94 117.24Z" fill="#4285F4"/>
<g opacity="0.8">
<path opacity="0.8" d="M710.131 695.37H163V344.19C163 342.115 163.406 340.061 164.196 338.144C164.986 336.227 166.144 334.485 167.603 333.018C169.062 331.551 170.795 330.387 172.702 329.593C174.608 328.799 176.652 328.39 178.716 328.39H694.405C696.469 328.39 698.512 328.799 700.419 329.593C702.326 330.387 704.058 331.551 705.518 333.018C706.977 334.485 708.135 336.227 708.924 338.144C709.714 340.061 710.121 342.115 710.121 344.19L710.131 695.37Z" fill="url(#paint4_linear)"/>
</g>
<path d="M183.451 334.85H686.75C690.941 334.85 694.96 336.515 697.923 339.478C700.886 342.441 702.55 346.46 702.55 350.65V695.37H167.651V350.65C167.651 346.46 169.315 342.441 172.278 339.478C175.241 336.515 179.26 334.85 183.451 334.85V334.85Z" fill="white"/>
<path d="M685.331 355.82H184.87V684.07H685.331V355.82Z" fill="#F5F5F5"/>
<path opacity="0.8" d="M685.131 371.76H186.791V667.08H685.131V371.76Z" fill="#E0E0E0" fill-opacity="0.78"/>
<path d="M685.131 356.07H186.791V371.76H685.131V356.07Z" fill="#F5F5F5"/>
<path d="M197.47 367.47C199.569 367.47 201.27 365.769 201.27 363.67C201.27 361.571 199.569 359.87 197.47 359.87C195.372 359.87 193.67 361.571 193.67 363.67C193.67 365.769 195.372 367.47 197.47 367.47Z" fill="#FF5252"/>
<path d="M207.93 367.47C210.029 367.47 211.73 365.769 211.73 363.67C211.73 361.571 210.029 359.87 207.93 359.87C205.832 359.87 204.13 361.571 204.13 363.67C204.13 365.769 205.832 367.47 207.93 367.47Z" fill="#FFFF00"/>
<path d="M218.4 367.47C220.499 367.47 222.2 365.769 222.2 363.67C222.2 361.571 220.499 359.87 218.4 359.87C216.302 359.87 214.6 361.571 214.6 363.67C214.6 365.769 216.302 367.47 218.4 367.47Z" fill="#69F0AE"/>
<g opacity="0.8">
<path opacity="0.8" d="M725.519 698.243C694.899 699.487 169.06 698.988 150.68 698.243C126.59 692.017 127 667.863 127 667.863L368.15 667L368.96 674.352H472.199L476.199 667.863H743.479C743.479 667.863 748.789 690.027 725.519 698.243Z" fill="url(#paint5_linear)"/>
</g>
<path d="M742.482 666H479.324C480.359 666.668 481.032 667.494 481.262 668.377C481.492 669.26 481.267 670.163 480.617 670.974C479.967 671.786 478.918 672.471 477.599 672.947C476.28 673.424 474.747 673.669 473.188 673.655H372.769C371.21 673.669 369.678 673.424 368.359 672.947C367.04 672.471 365.991 671.786 365.34 670.974C364.69 670.163 364.466 669.26 364.695 668.377C364.925 667.494 365.599 666.668 366.634 666H131C131 666 130.599 688.5 154.488 694.297C172.714 694.993 694.301 695.448 724.667 694.297C747.754 686.642 742.482 666 742.482 666Z" fill="#F5F5F5"/>
<path d="M185.07 677.63C186.854 677.63 188.3 676.184 188.3 674.4C188.3 672.616 186.854 671.17 185.07 671.17C183.287 671.17 181.84 672.616 181.84 674.4C181.84 676.184 183.287 677.63 185.07 677.63Z" fill="#E0E0E0"/>
<path d="M194.751 677.63C196.534 677.63 197.981 676.184 197.981 674.4C197.981 672.616 196.534 671.17 194.751 671.17C192.967 671.17 191.521 672.616 191.521 674.4C191.521 676.184 192.967 677.63 194.751 677.63Z" fill="#E0E0E0"/>
<path d="M204.43 677.63C206.214 677.63 207.66 676.184 207.66 674.4C207.66 672.616 206.214 671.17 204.43 671.17C202.647 671.17 201.2 672.616 201.2 674.4C201.2 676.184 202.647 677.63 204.43 677.63Z" fill="#E0E0E0"/>
<path d="M366 306.38V99.3799H537" stroke="#3AD29F" stroke-width="2" stroke-miterlimit="10" stroke-dasharray="12 12"/>
<path d="M313 243.38V36.3799H484" stroke="#3AD29F" stroke-width="2" stroke-miterlimit="10" stroke-dasharray="12 12"/>
<path d="M843 477.38V639.38H753" stroke="#3AD29F" stroke-width="2" stroke-miterlimit="10" stroke-dasharray="12 12"/>
<path d="M897 513.38V675.38H807" stroke="#3AD29F" stroke-width="2" stroke-miterlimit="10" stroke-dasharray="12 12"/>
<rect x="0.500051" y="0.500052" width="299.988" height="187.835" rx="15.5" transform="matrix(1 0.000104121 0.000101515 1 204 459)" fill="white" stroke="#DBDBDB"/>
<path d="M452.777 599.769L441.627 589.886L442.893 589.09L454.043 598.974L452.777 599.769Z" fill="#35495E"/>
<path d="M427.556 596.93L428.434 595.883L416.795 590.323L415.916 591.371L427.556 596.93Z" fill="#35495E"/>
<path d="M430.866 595.883L429.873 594.895L439.142 589.709L440.136 590.697L430.866 595.883Z" fill="#35495E"/>
<path d="M457.355 612.56L452.389 612.56C451.474 612.56 450.733 613.112 450.733 613.795L450.734 621.823L459.011 621.824L459.011 613.795C459.011 613.113 458.269 612.56 457.355 612.56Z" fill="#CC4B4C"/>
<path d="M444.111 603.913L439.144 603.912C438.23 603.912 437.489 604.465 437.489 605.147L437.491 621.821L445.768 621.822L445.766 605.148C445.766 604.466 445.025 603.913 444.111 603.913Z" fill="#F0C419"/>
<path d="M430.868 607.617L425.901 607.616C424.987 607.616 424.246 608.169 424.246 608.851L424.247 621.82L432.524 621.821L432.523 608.852C432.523 608.17 431.782 607.617 430.868 607.617Z" fill="#4482C3"/>
<path d="M417.624 602.675L412.657 602.674C411.743 602.674 411.002 603.227 411.002 603.909L411.004 621.819L419.281 621.82L419.279 603.91C419.279 603.228 418.538 602.675 417.624 602.675Z" fill="#46B29D"/>
<path d="M454.871 603.914C452.585 603.914 450.732 602.531 450.732 600.826C450.732 599.12 452.585 597.738 454.87 597.738C457.156 597.738 459.009 599.121 459.009 600.826C459.01 602.532 457.157 603.914 454.871 603.914Z" fill="#CC4B4C"/>
<path d="M441.626 592.179C439.341 592.179 437.488 590.796 437.487 589.091C437.487 587.385 439.34 586.003 441.626 586.003C443.911 586.003 445.765 587.386 445.765 589.091C445.765 590.797 443.912 592.179 441.626 592.179Z" fill="#CC4B4C"/>
<path d="M415.139 593.411C412.854 593.411 411.001 592.028 411 590.323C411 588.618 412.853 587.235 415.139 587.236C417.424 587.236 419.277 588.618 419.278 590.324C419.278 592.029 417.425 593.411 415.139 593.411Z" fill="#CC4B4C"/>
<path d="M428.384 599.588C426.098 599.588 424.245 598.205 424.245 596.5C424.244 594.795 426.097 593.412 428.383 593.413C430.669 593.413 432.522 594.795 432.522 596.501C432.522 598.206 430.669 599.588 428.384 599.588Z" fill="#CC4B4C"/>
<g opacity="0.5">
<path opacity="0.5" d="M459 486.024L226 486L226.001 497.624L459.001 497.648L459 486.024Z" fill="#ACACCE"/>
<path opacity="0.5" d="M416.24 540.038L226.005 540.019L226.007 551.643L416.241 551.663L416.24 540.038Z" fill="#ACACCE"/>
<path opacity="0.5" d="M391.167 512.001L226.003 511.984L226.004 523.608L391.168 523.625L391.167 512.001Z" fill="#ACACCE"/>
</g>
<path d="M651 632.545C651.001 632.866 650.943 633.184 650.829 633.482C650.714 633.779 650.546 634.049 650.334 634.277C650.121 634.506 649.869 634.687 649.59 634.811C649.312 634.935 649.014 634.999 648.712 635H548.288C547.986 634.999 547.687 634.935 547.409 634.81C547.131 634.686 546.878 634.505 546.665 634.277C546.453 634.048 546.285 633.778 546.171 633.48C546.056 633.182 545.998 632.864 546 632.542V559.455C545.999 559.134 546.057 558.816 546.171 558.518C546.286 558.221 546.454 557.951 546.666 557.723C546.879 557.494 547.131 557.313 547.41 557.189C547.688 557.065 547.986 557.001 548.288 557H648.712C649.014 557.001 649.313 557.065 649.591 557.19C649.869 557.314 650.122 557.495 650.335 557.723C650.547 557.952 650.715 558.222 650.829 558.52C650.944 558.818 651.002 559.136 651 559.458" fill="url(#paint6_linear)"/>
<path d="M649 630.637C649 631.264 648.766 631.865 648.35 632.308C647.935 632.751 647.37 633 646.782 633H549.218C548.63 633 548.065 632.751 547.65 632.308C547.234 631.865 547 631.264 547 630.637V560.363C547 559.736 547.234 559.135 547.65 558.692C548.065 558.249 548.63 558 549.218 558H646.782C647.37 558 647.935 558.249 648.35 558.692C648.766 559.135 649 559.736 649 560.363" fill="white"/>
<path d="M644.186 561.65H552.565C551.983 561.65 551.511 562.153 551.511 562.774V628.859C551.511 629.48 551.983 629.983 552.565 629.983H644.186C644.767 629.983 645.239 629.48 645.239 628.859V562.774C645.239 562.153 644.767 561.65 644.186 561.65Z" fill="url(#paint7_linear)"/>
<path d="M642.95 563H554.05C553.47 563 553 563.505 553 564.127V626.873C553 627.495 553.47 628 554.05 628H642.95C643.53 628 644 627.495 644 626.873V564.127C644 563.505 643.53 563 642.95 563Z" fill="white"/>
<path d="M547.59 627.464L573.084 596.279C573.524 595.741 574.059 595.302 574.658 594.985C575.258 594.669 575.91 594.482 576.577 594.435C577.245 594.389 577.914 594.483 578.547 594.714C579.18 594.945 579.764 595.306 580.265 595.779L587.406 602.503C588.318 603.362 589.488 603.842 590.703 603.858C591.919 603.874 593.099 603.423 594.03 602.588L615.848 583.009C616.853 582.108 618.145 581.658 619.455 581.752C620.764 581.847 621.988 582.48 622.87 583.517L649.648 614.977C650.393 615.852 650.849 616.963 650.947 618.14L651.98 630.551C652.042 631.3 651.958 632.054 651.732 632.767C651.507 633.479 651.144 634.133 650.669 634.688C650.193 635.243 649.615 635.686 648.97 635.989C648.325 636.292 647.629 636.448 646.924 636.448H551.411C550.091 636.448 548.823 635.899 547.875 634.918C546.928 633.936 546.376 632.6 546.337 631.191V631.191C546.299 629.824 546.746 628.493 547.59 627.464V627.464Z" fill="#4285F4"/>
<path d="M563.5 580C566.538 580 569 577.314 569 574C569 570.686 566.538 568 563.5 568C560.462 568 558 570.686 558 574C558 577.314 560.462 580 563.5 580Z" fill="#FF5252"/>
<line y1="-2.5" x2="177.903" y2="-2.5" transform="matrix(0.99999 -0.00451756 0.0045324 0.99999 489.744 413.052)" stroke="#657190" stroke-width="5"/>
<rect x="0.500074" y="0.500036" width="498.692" height="73.4857" transform="matrix(1 7.17333e-05 0.000147348 1 185 372)" fill="#DBDBDB" stroke="#E5E5E5"/>
<g opacity="0.5">
<path opacity="0.5" d="M392.885 393.823L292.926 393.812L292.927 400.801L392.886 400.811L392.885 393.823Z" fill="#424F74"/>
<path opacity="0.5" d="M349.185 424.982L292.929 424.976L292.93 431.964L349.186 431.97L349.185 424.982Z" fill="#ACACCE"/>
<path opacity="0.5" d="M448.64 409.412L292.928 409.396L292.928 416.384L448.64 416.401L448.64 409.412Z" fill="#ACACCE"/>
</g>
<g opacity="0.5">
<path opacity="0.5" d="M604.959 394.01L505 394L505.001 400.988L604.96 400.999L604.959 394.01Z" fill="#424F74"/>
<path opacity="0.5" d="M561.259 425.169L505.003 425.163L505.004 432.152L561.26 432.158L561.259 425.169Z" fill="#ACACCE"/>
<path opacity="0.5" d="M660.713 409.6L505.002 409.584L505.002 416.572L660.714 416.588L660.713 409.6Z" fill="#ACACCE"/>
</g>
<g clip-path="url(#clip0)">
<path d="M262.72 404.995C262.268 402.113 255.814 399.828 247.914 399.828C240.015 399.828 233.561 402.113 233.109 404.995L233.082 404.995L233.082 405.318L233.082 412.746L233.082 413.069L233.082 413.392L233.082 420.497L233.082 420.82L233.082 421.143L233.082 428.894L233.11 428.894C233.562 431.776 240.016 434.061 247.915 434.061C255.814 434.061 262.268 431.775 262.72 428.893L262.748 428.893L262.748 421.142L262.748 420.819L262.748 420.497L262.748 413.391L262.748 413.069L262.748 412.746L262.747 405.318L262.747 404.995L262.72 404.995Z" fill="#545E73"/>
<path d="M247.915 426.311C239.723 426.311 233.081 423.853 233.081 420.822L233.081 428.894L233.109 428.894C233.561 431.775 240.016 434.061 247.915 434.061C255.815 434.061 262.27 431.775 262.722 428.894L262.749 428.894L262.749 420.821C262.749 423.853 256.108 426.311 247.915 426.311Z" fill="#38454F"/>
<path d="M233.08 420.495L233.08 420.818C233.08 420.71 233.091 420.603 233.109 420.495L233.08 420.495Z" fill="#38454F"/>
<path d="M262.721 420.499C262.738 420.606 262.75 420.713 262.75 420.822L262.75 420.499L262.721 420.499Z" fill="#38454F"/>
<path d="M247.914 418.559C239.721 418.559 233.08 416.101 233.08 413.07L233.08 421.143L233.108 421.143C233.56 424.024 240.015 426.309 247.914 426.309C255.813 426.309 262.268 424.023 262.72 421.142L262.748 421.142L262.748 413.07C262.748 416.101 256.107 418.559 247.914 418.559Z" fill="#556080"/>
<path d="M233.079 412.744L233.079 413.067C233.079 412.959 233.091 412.851 233.108 412.744L233.079 412.744Z" fill="#556080"/>
<path d="M262.72 412.747C262.737 412.854 262.749 412.961 262.749 413.07L262.749 412.747L262.72 412.747Z" fill="#556080"/>
<path d="M247.912 410.806C256.105 410.806 262.747 408.348 262.746 405.316C262.746 402.285 256.105 399.827 247.912 399.828C239.72 399.828 233.078 402.286 233.078 405.317C233.078 408.349 239.72 410.806 247.912 410.806Z" fill="#91BAE1"/>
<path d="M247.913 410.807C239.72 410.808 233.079 408.35 233.079 405.318L233.079 413.391L233.107 413.391C233.559 416.272 240.014 418.557 247.913 418.557C255.812 418.557 262.267 416.272 262.719 413.391L262.747 413.391L262.747 405.318C262.747 408.349 256.106 410.807 247.913 410.807Z" fill="#8697CB"/>
<path d="M233.078 404.992L233.078 405.315C233.078 405.207 233.089 405.1 233.107 404.992L233.078 404.992Z" fill="#8697CB"/>
<path d="M262.72 404.995C262.737 405.102 262.749 405.21 262.749 405.318L262.749 404.995L262.72 404.995Z" fill="#8697CB"/>
<path d="M258.423 436C262.519 436 265.839 432.53 265.839 428.249C265.839 423.969 262.519 420.499 258.423 420.499C254.326 420.499 251.006 423.969 251.006 428.25C251.006 432.53 254.326 436 258.423 436Z" fill="#26B999"/>
<path d="M262.484 424.49C262.203 424.286 261.818 424.358 261.623 424.651L258.165 429.844L255.724 427.75C255.461 427.524 255.071 427.564 254.854 427.84C254.638 428.116 254.676 428.523 254.94 428.749L257.898 431.286C258.01 431.381 258.148 431.433 258.29 431.433C258.318 431.433 258.346 431.431 258.375 431.427C258.545 431.402 258.699 431.305 258.798 431.157L262.638 425.389C262.833 425.096 262.764 424.694 262.484 424.49Z" fill="white"/>
</g>
<defs>
<linearGradient id="paint0_linear" x1="787.5" y1="458.72" x2="787.5" y2="0" gradientUnits="userSpaceOnUse">
<stop stop-color="#808080" stop-opacity="0.25"/>
<stop offset="0.54" stop-color="#808080" stop-opacity="0.12"/>
<stop offset="1" stop-color="#808080" stop-opacity="0.1"/>
</linearGradient>
<linearGradient id="paint1_linear" x1="65221.4" y1="9665.64" x2="65221.4" y2="3246.42" gradientUnits="userSpaceOnUse">
<stop stop-color="#808080" stop-opacity="0.25"/>
<stop offset="0.54" stop-color="#808080" stop-opacity="0.12"/>
<stop offset="1" stop-color="#808080" stop-opacity="0.1"/>
</linearGradient>
<linearGradient id="paint2_linear" x1="65221.4" y1="21752.5" x2="65221.4" y2="15333.3" gradientUnits="userSpaceOnUse">
<stop stop-color="#808080" stop-opacity="0.25"/>
<stop offset="0.54" stop-color="#808080" stop-opacity="0.12"/>
<stop offset="1" stop-color="#808080" stop-opacity="0.1"/>
</linearGradient>
<linearGradient id="paint3_linear" x1="65221.4" y1="33758.3" x2="65221.4" y2="27339.1" gradientUnits="userSpaceOnUse">
<stop stop-color="#808080" stop-opacity="0.25"/>
<stop offset="0.54" stop-color="#808080" stop-opacity="0.12"/>
<stop offset="1" stop-color="#808080" stop-opacity="0.1"/>
</linearGradient>
<linearGradient id="paint4_linear" x1="260105" y1="288474" x2="260105" y2="153803" gradientUnits="userSpaceOnUse">
<stop stop-color="#808080" stop-opacity="0.25"/>
<stop offset="0.54" stop-color="#808080" stop-opacity="0.12"/>
<stop offset="1" stop-color="#808080" stop-opacity="0.1"/>
</linearGradient>
<linearGradient id="paint5_linear" x1="293511" y1="26593.1" x2="293511" y2="24683" gradientUnits="userSpaceOnUse">
<stop stop-color="#808080" stop-opacity="0.25"/>
<stop offset="0.54" stop-color="#808080" stop-opacity="0.12"/>
<stop offset="1" stop-color="#808080" stop-opacity="0.1"/>
</linearGradient>
<linearGradient id="paint6_linear" x1="598.5" y1="635.003" x2="598.5" y2="556.997" gradientUnits="userSpaceOnUse">
<stop stop-color="#808080" stop-opacity="0.25"/>
<stop offset="0.54" stop-color="#808080" stop-opacity="0.12"/>
<stop offset="1" stop-color="#808080" stop-opacity="0.1"/>
</linearGradient>
<linearGradient id="paint7_linear" x1="41534" y1="39819.8" x2="41534" y2="3064.01" gradientUnits="userSpaceOnUse">
<stop stop-color="#808080" stop-opacity="0.25"/>
<stop offset="0.54" stop-color="#808080" stop-opacity="0.12"/>
<stop offset="1" stop-color="#808080" stop-opacity="0.1"/>
</linearGradient>
<clipPath id="clip0">
<rect width="34.6143" height="36.1744" fill="white" transform="matrix(1 0.00010368 0.000101947 1 232.15 399.824)"/>
</clipPath>
</defs>
</svg>
