<svg width="1526" height="1267" viewBox="0 0 1526 1267" fill="none" xmlns="http://www.w3.org/2000/svg">
<g clip-path="url(#clip0)">
<path d="M112.886 69.4255L117.318 875.5L1354.51 868.809L1350.07 62.734L112.886 69.4255Z" fill="url(#paint0_linear)"/>
<path d="M15.9543 888.024L11.4206 63.4021C11.3187 44.8677 26.7586 29.7044 45.9748 29.6005L1393.36 22.313C1412.57 22.2091 1428.18 37.2044 1428.28 55.7389L1432.81 880.36C1432.92 898.895 1417.48 914.058 1398.26 914.162L50.8781 921.45C31.6619 921.553 16.0562 906.558 15.9543 888.024Z" fill="white" stroke="#8C94AE" stroke-width="2"/>
<path d="M1405.04 466.603C1404.97 449.034 1390.21 434.851 1372.07 434.925C1353.93 434.998 1339.28 449.301 1339.35 466.87C1339.42 484.439 1354.19 498.622 1372.33 498.548C1390.47 498.475 1405.12 484.173 1405.04 466.603Z" fill="#DBDBDB"/>
<path d="M81.2914 607.365C81.2592 601.508 76.3313 596.787 70.2845 596.82C64.2378 596.853 59.3621 601.627 59.3943 607.483C59.4265 613.34 64.3544 618.061 70.4011 618.028C76.4479 617.995 81.3236 613.221 81.2914 607.365Z" fill="#DBDBDB"/>
<path d="M62.7319 419.473L63.4581 551.558C63.4668 553.15 64.8066 554.433 66.4504 554.425L71.446 554.398C73.0899 554.389 74.4154 553.091 74.4067 551.499L73.6805 419.414C73.6717 417.822 72.332 416.538 70.6881 416.547L65.6926 416.574C64.0487 416.583 62.7231 417.881 62.7319 419.473Z" fill="#DBDBDB"/>
<rect x="2.0002" y="2.00021" width="1198" height="761.149" rx="6" transform="matrix(1 0.000104121 0.000101515 1 114.008 82.9325)" fill="white" stroke="#DBDBDB" stroke-width="4"/>
<rect width="1199" height="509.758" transform="matrix(1 0.000104121 0.000101515 1 117.032 321.914)" fill="#E5E5E5" fill-opacity="0.22"/>
<rect x="0.250025" y="0.250026" width="1198.5" height="509.258" transform="matrix(1 0.000104121 0.000101515 1 117.032 321.914)" stroke="#DBDBDB" stroke-opacity="0.35" stroke-width="0.5"/>
<rect x="0.500051" y="0.500052" width="1194" height="175.415" transform="matrix(1 0.00010412 0.000101515 1 117.014 145.499)" fill="#DBDBDB" fill-opacity="0.52" stroke="#E5E5E5"/>
<rect x="0.500051" y="0.500052" width="483" height="310.803" rx="15.5" transform="matrix(1 0.000104121 0.000101515 1 176.044 434.744)" fill="white" stroke="#DBDBDB"/>
<path d="M114.081 804.619C114.08 796.335 120.795 789.62 129.08 789.62L1301.08 789.742C1309.36 789.743 1316.08 796.46 1316.08 804.744L1316.09 840.387C1316.09 848.671 1309.37 855.386 1301.09 855.385L129.086 855.263C120.802 855.262 114.086 848.546 114.085 840.262L114.081 804.619Z" fill="white"/>
<path d="M129.08 790.62L1301.08 790.742C1308.81 790.743 1315.08 797.012 1315.08 804.744L1315.09 840.387C1315.09 848.119 1308.82 854.386 1301.09 854.385L129.086 854.263C121.354 854.262 115.086 847.994 115.085 840.262L115.081 804.619C115.08 796.887 121.348 790.62 129.08 790.62Z" stroke="#DBDBDB" stroke-opacity="0.74" stroke-width="2"/>
<path d="M1264.15 111.217L1268.51 100.146L1272.87 111.218C1272.91 111.333 1273.02 111.408 1273.15 111.408L1287.11 111.409L1275.87 118.149C1275.74 118.225 1275.69 118.38 1275.74 118.516L1280.06 129.487L1268.67 122.652C1268.57 122.595 1268.45 122.595 1268.36 122.652L1256.97 129.485L1261.28 118.515C1261.34 118.378 1261.28 118.223 1261.16 118.148L1249.92 111.406L1263.87 111.407C1264 111.407 1264.11 111.332 1264.15 111.217Z" fill="#F0C419" stroke="black" stroke-width="0.5"/>
<g opacity="0.5">
<path opacity="0.5" d="M522.369 186.568L274.018 186.542L274.02 203.978L522.37 204.004L522.369 186.568Z" fill="#424F74"/>
<path opacity="0.5" d="M413.796 264.313L274.026 264.298L274.028 281.734L413.798 281.749L413.796 264.313Z" fill="#ACACCE"/>
<path opacity="0.5" d="M660.893 225.465L274.022 225.425L274.024 242.862L660.894 242.902L660.893 225.465Z" fill="#ACACCE"/>
</g>
<g opacity="0.5">
<path opacity="0.5" d="M1105.04 438.943L789.044 438.91L789.046 456.347L1105.05 456.38L1105.04 438.943Z" fill="#ACACCE"/>
<path opacity="0.5" d="M1047.05 519.965L789.053 519.938L789.054 537.375L1047.05 537.401L1047.05 519.965Z" fill="#ACACCE"/>
<path opacity="0.5" d="M1013.05 477.909L789.048 477.886L789.05 495.322L1013.05 495.346L1013.05 477.909Z" fill="#ACACCE"/>
</g>
<g opacity="0.5">
<path opacity="0.5" d="M429.053 525.029L196.053 525.005L196.054 536.629L429.054 536.653L429.053 525.029Z" fill="#ACACCE"/>
<path opacity="0.5" d="M386.293 579.043L196.058 579.023L196.059 590.647L386.294 590.667L386.293 579.043Z" fill="#ACACCE"/>
<path opacity="0.5" d="M361.22 551.005L196.055 550.988L196.057 562.613L361.221 562.63L361.22 551.005Z" fill="#ACACCE"/>
</g>
<g clip-path="url(#clip1)">
<path d="M223.967 201.481C222.845 194.29 206.809 188.588 187.184 188.588C167.558 188.588 151.522 194.29 150.4 201.481L150.331 201.481L150.331 202.287L150.331 220.821L150.331 221.626L150.331 222.432L150.331 240.16L150.331 240.966L150.331 241.772L150.331 261.111L150.4 261.111C151.522 268.3 167.56 274.004 187.184 274.004C206.808 274.004 222.845 268.3 223.968 261.111L224.037 261.111L224.037 241.771L224.037 240.966L224.037 240.16L224.037 222.432L224.037 221.626L224.037 220.82L224.037 202.287L224.037 201.481L223.967 201.481Z" fill="#545E73"/>
<path d="M187.186 254.667C166.831 254.667 150.331 248.534 150.331 240.971L150.331 261.113L150.4 261.113C151.523 268.301 167.561 274.004 187.186 274.004C206.812 274.004 222.85 268.301 223.973 261.113L224.042 261.113L224.042 240.97C224.042 248.534 207.541 254.667 187.186 254.667Z" fill="#38454F"/>
<path d="M150.328 240.157L150.328 240.963C150.328 240.692 150.355 240.424 150.397 240.157L150.328 240.157Z" fill="#38454F"/>
<path d="M223.973 240.165C224.014 240.432 224.042 240.7 224.042 240.97L224.042 240.165L223.973 240.165Z" fill="#38454F"/>
<path d="M187.184 235.326C166.829 235.326 150.329 229.193 150.329 221.629L150.329 241.772L150.398 241.772C151.521 248.96 167.559 254.663 187.184 254.663C206.81 254.663 222.848 248.96 223.971 241.771L224.04 241.771L224.04 221.629C224.04 229.193 207.539 235.326 187.184 235.326Z" fill="#556080"/>
<path d="M150.326 220.816L150.326 221.622C150.326 221.351 150.353 221.083 150.395 220.816L150.326 220.816Z" fill="#556080"/>
<path d="M223.971 220.823C224.012 221.091 224.04 221.358 224.04 221.629L224.04 220.823L223.971 220.823Z" fill="#556080"/>
<path d="M187.181 215.98C207.536 215.98 224.037 209.848 224.037 202.284C224.037 194.72 207.536 188.588 187.181 188.588C166.826 188.588 150.325 194.72 150.325 202.284C150.325 209.848 166.826 215.98 187.181 215.98Z" fill="#91BAE1"/>
<path d="M187.182 215.985C166.827 215.985 150.327 209.852 150.327 202.288L150.327 222.43L150.396 222.43C151.519 229.619 167.557 235.321 187.182 235.321C206.808 235.321 222.846 229.619 223.969 222.43L224.038 222.43L224.038 202.288C224.038 209.852 207.537 215.985 187.182 215.985Z" fill="#8697CB"/>
<path d="M150.324 201.474L150.324 202.28C150.324 202.01 150.351 201.742 150.393 201.474L150.324 201.474Z" fill="#8697CB"/>
<path d="M223.969 201.482C224.01 201.75 224.038 202.017 224.038 202.288L224.038 201.482L223.969 201.482Z" fill="#8697CB"/>
<path d="M213.294 278.844C223.471 278.844 231.72 270.185 231.72 259.505C231.72 248.824 223.47 240.165 213.294 240.165C203.117 240.166 194.867 248.824 194.867 259.505C194.867 270.185 203.117 278.844 213.294 278.844Z" fill="#26B999"/>
<path d="M223.384 250.124C222.685 249.614 221.73 249.795 221.246 250.527L212.653 263.484L206.589 258.259C205.935 257.693 204.966 257.795 204.429 258.483C203.89 259.171 203.985 260.186 204.642 260.75L211.992 267.082C212.268 267.319 212.612 267.448 212.965 267.448C213.034 267.448 213.105 267.443 213.175 267.434C213.599 267.371 213.98 267.127 214.226 266.758L223.768 252.369C224.252 251.637 224.08 250.633 223.384 250.124Z" fill="white"/>
</g>
<path d="M776.13 448.111C776.114 444.162 772.954 440.973 769.073 440.989C765.191 441.004 762.057 444.219 762.074 448.168C762.09 452.117 765.249 455.305 769.131 455.29C773.012 455.274 776.146 452.06 776.13 448.111Z" fill="#DBDBDB"/>
<path d="M776.138 529.138C776.122 525.189 772.963 522.001 769.081 522.017C765.199 522.032 762.066 525.246 762.082 529.196C762.098 533.145 765.257 536.333 769.139 536.317C773.021 536.302 776.154 533.088 776.138 529.138Z" fill="#DBDBDB"/>
<path d="M776.134 487.086C776.118 483.137 772.958 479.948 769.077 479.964C765.195 479.98 762.061 483.194 762.077 487.143C762.093 491.092 765.253 494.281 769.135 494.265C773.016 494.249 776.15 491.035 776.134 487.086Z" fill="#DBDBDB"/>
<line y1="-0.5" x2="484.001" y2="-0.5" transform="matrix(0.999997 -0.00232067 0.00240637 0.999997 177.047 472.842)" stroke="#E5E5E5"/>
<ellipse rx="7.5" ry="7.69252" transform="matrix(1 0.000104124 0.000101518 1 202.546 453.721)" fill="#0F71D3"/>
<ellipse rx="7.5" ry="7.69252" transform="matrix(1 0.000104124 0.000101518 1 228.546 453.724)" fill="#26B999"/>
<ellipse rx="7.49999" ry="7.69252" transform="matrix(1 0.000104128 0.000101522 1 254.546 453.727)" fill="#FCE056"/>
<path d="M435.201 640.184L465.852 609.059L462.369 606.553L431.718 637.678L435.201 640.184Z" fill="#35495E"/>
<path d="M504.546 631.256L502.131 627.957L534.131 610.453L536.546 613.753L504.546 631.256Z" fill="#35495E"/>
<path d="M495.444 627.958L498.174 624.846L472.683 608.503L469.952 611.615L495.444 627.958Z" fill="#35495E"/>
<path d="M422.62 680.47L436.276 680.472C438.79 680.472 440.828 682.214 440.828 684.363L440.83 709.651L418.072 709.648L418.069 684.36C418.069 682.212 420.106 680.47 422.62 680.47Z" fill="#CC4B4C"/>
<path d="M459.032 653.241L472.687 653.242C475.201 653.242 477.239 654.984 477.239 657.133L477.244 709.654L454.486 709.652L454.48 657.131C454.48 654.982 456.518 653.24 459.032 653.241Z" fill="#F0C419"/>
<path d="M495.446 664.916L509.102 664.917C511.616 664.918 513.654 666.66 513.654 668.808L513.658 709.658L490.899 709.656L490.895 668.806C490.895 666.657 492.933 664.916 495.446 664.916Z" fill="#4482C3"/>
<path d="M531.859 649.358L545.514 649.359C548.028 649.36 550.066 651.102 550.066 653.25L550.072 709.662L527.313 709.66L527.307 653.248C527.307 651.099 529.345 649.358 531.859 649.358Z" fill="#46B29D"/>
<path d="M429.445 653.238C435.73 653.238 440.824 648.884 440.824 643.513C440.823 638.141 435.728 633.786 429.443 633.785C423.159 633.784 418.064 638.139 418.065 643.51C418.065 648.882 423.161 653.237 429.445 653.238Z" fill="#CC4B4C"/>
<path d="M465.855 616.282C472.14 616.283 477.234 611.929 477.234 606.557C477.233 601.185 472.138 596.83 465.853 596.83C459.569 596.829 454.474 601.183 454.475 606.555C454.475 611.926 459.571 616.281 465.855 616.282Z" fill="#CC4B4C"/>
<path d="M538.683 620.18C544.968 620.181 550.062 615.827 550.062 610.455C550.061 605.083 544.966 600.728 538.681 600.728C532.397 600.727 527.302 605.081 527.303 610.453C527.304 615.824 532.399 620.179 538.683 620.18Z" fill="#CC4B4C"/>
<path d="M502.272 639.629C508.556 639.629 513.65 635.275 513.65 629.904C513.649 624.532 508.554 620.177 502.27 620.176C495.985 620.176 490.891 624.53 490.891 629.901C490.892 635.273 495.987 639.628 502.272 639.629Z" fill="#CC4B4C"/>
<path d="M536.756 554.46L482.489 499.523C469.357 514.833 469.89 538.068 484.352 552.574C498.682 567.215 521.633 567.755 536.756 554.46Z" fill="#DD342E"/>
<path d="M536.75 495.634C522.287 482.873 500.663 482.871 486.203 495.629L511.413 521.15L536.75 495.634Z" fill="#42B05C"/>
<path d="M540.603 550.7C553.205 536.062 553.07 514.17 540.465 499.529L515.26 525.045L540.603 550.7Z" fill="#7383BF"/>
<line y1="-2.5" x2="442.005" y2="-2.5" transform="matrix(0.99999 -0.00453679 0.00451319 0.99999 806.024 237.881)" stroke="#657190" stroke-width="5"/>
<path d="M1246.93 735C1246.03 735 1245.29 734.177 1245.29 733.158C1245.29 732.139 1246.03 731.316 1246.93 731.316H1250.1C1251.01 731.316 1251.81 732.139 1251.81 733.156C1251.81 734.175 1251.13 734.998 1250.22 734.998V733.156L1250.17 734.998L1246.93 735ZM1240.36 735H1237.08C1236.17 735 1235.43 734.177 1235.43 733.158C1235.43 732.139 1236.17 731.316 1237.08 731.316H1240.36C1241.27 731.316 1242 732.139 1242 733.158C1242 734.177 1241.27 735 1240.36 735ZM1230.5 735H1227.22C1226.31 735 1225.57 734.177 1225.57 733.158C1225.57 732.139 1226.31 731.316 1227.22 731.316H1230.5C1231.41 731.316 1232.15 732.139 1232.15 733.158C1232.15 734.177 1231.41 735 1230.5 735ZM1220.65 735H1217.36C1216.45 735 1215.72 734.177 1215.72 733.158C1215.72 732.139 1216.45 731.316 1217.36 731.316H1220.65C1221.55 731.316 1222.29 732.139 1222.29 733.158C1222.29 734.177 1221.55 735 1220.65 735ZM1210.79 735H1207.5C1206.59 735 1205.86 734.177 1205.86 733.158C1205.86 732.139 1206.59 731.316 1207.5 731.316H1210.79C1211.7 731.316 1212.43 732.139 1212.43 733.158C1212.43 734.177 1211.7 735 1210.79 735ZM1200.93 735H1197.64C1196.73 735 1196 734.177 1196 733.158C1196 732.139 1196.73 731.316 1197.64 731.316H1200.93C1201.84 731.316 1202.57 732.139 1202.57 733.158C1202.57 734.177 1201.84 735 1200.93 735ZM1255.92 731.835C1255.56 731.835 1255.2 731.706 1254.9 731.441C1254.19 730.811 1254.07 729.652 1254.63 728.855C1255.16 728.094 1255.53 727.23 1255.72 726.291C1255.91 725.298 1256.79 724.675 1257.68 724.898C1258.56 725.121 1259.12 726.106 1258.92 727.099C1258.63 728.558 1258.04 729.953 1257.21 731.13C1256.89 731.594 1256.4 731.835 1255.92 731.835ZM1255.92 721.588C1255.43 721.588 1254.95 721.346 1254.62 720.884C1254.1 720.134 1253.42 719.513 1252.66 719.09C1251.85 718.637 1251.51 717.531 1251.92 716.619C1252.32 715.709 1253.31 715.336 1254.12 715.791C1255.32 716.456 1256.38 717.43 1257.21 718.605C1257.77 719.405 1257.65 720.563 1256.93 721.192C1256.63 721.457 1256.27 721.588 1255.92 721.588ZM1246.94 718.421H1243.65C1242.74 718.421 1242.01 717.598 1242.01 716.579C1242.01 715.56 1242.74 714.737 1243.65 714.737H1246.94C1247.84 714.737 1248.58 715.56 1248.58 716.579C1248.58 717.598 1247.84 718.421 1246.94 718.421ZM1237.08 718.421H1233.79C1232.88 718.421 1232.15 717.598 1232.15 716.579C1232.15 715.56 1232.88 714.737 1233.79 714.737H1237.08C1237.99 714.737 1238.72 715.56 1238.72 716.579C1238.72 717.598 1237.99 718.421 1237.08 718.421ZM1227.31 717.673C1227.09 717.673 1226.85 717.62 1226.63 717.506C1225.42 716.887 1224.33 715.951 1223.47 714.803C1222.88 714.024 1222.97 712.862 1223.67 712.208C1224.36 711.554 1225.4 711.653 1225.98 712.432C1226.53 713.164 1227.23 713.761 1228 714.157C1228.82 714.578 1229.19 715.671 1228.81 716.597C1228.53 717.273 1227.94 717.673 1227.31 717.673ZM1223.13 708.566C1223.02 708.566 1222.92 708.555 1222.82 708.533C1221.92 708.341 1221.34 707.374 1221.51 706.376C1221.77 704.885 1222.3 703.509 1223.11 702.282C1223.65 701.463 1224.68 701.289 1225.41 701.89C1226.14 702.494 1226.29 703.647 1225.76 704.465C1225.24 705.246 1224.9 706.121 1224.74 707.068C1224.59 707.952 1223.9 708.566 1223.13 708.566ZM1230.03 701.851C1229.16 701.851 1228.43 701.076 1228.39 700.085C1228.36 699.068 1229.06 698.209 1229.97 698.169C1230.11 698.162 1230.25 698.158 1230.39 698.158H1233.32C1234.23 698.158 1234.96 698.981 1234.96 700C1234.96 701.019 1234.23 701.842 1233.32 701.842L1230.1 701.849C1230.08 701.851 1230.06 701.851 1230.03 701.851ZM1259.96 701.842H1259.61C1258.7 701.842 1257.97 701.019 1257.97 700C1257.97 698.981 1258.7 698.158 1259.61 698.158H1259.96C1260.73 698.158 1261.48 697.99 1262.18 697.659C1263.01 697.263 1263.98 697.705 1264.34 698.644C1264.69 699.582 1264.29 700.661 1263.46 701.056C1262.35 701.577 1261.17 701.842 1259.96 701.842ZM1253.04 701.842H1249.75C1248.84 701.842 1248.11 701.019 1248.11 700C1248.11 698.981 1248.84 698.158 1249.75 698.158H1253.04C1253.95 698.158 1254.68 698.981 1254.68 700C1254.68 701.019 1253.95 701.842 1253.04 701.842ZM1243.18 701.842H1239.89C1238.98 701.842 1238.25 701.019 1238.25 700C1238.25 698.981 1238.98 698.158 1239.89 698.158H1243.18C1244.09 698.158 1244.82 698.981 1244.82 700C1244.82 701.019 1244.09 701.842 1243.18 701.842ZM1267.06 695.892C1266.9 695.892 1266.75 695.868 1266.6 695.818C1265.73 695.533 1265.23 694.509 1265.48 693.532C1265.63 692.943 1265.71 692.331 1265.71 691.712C1265.72 691.359 1265.69 691.023 1265.64 690.696C1265.5 689.692 1266.11 688.745 1267.01 688.584C1267.9 688.419 1268.75 689.106 1268.89 690.112C1268.97 690.651 1269 691.195 1269 691.725C1269 692.681 1268.88 693.641 1268.64 694.568C1268.42 695.371 1267.77 695.892 1267.06 695.892ZM1263.66 686.376C1263.38 686.376 1263.1 686.297 1262.84 686.127C1262.09 685.643 1261.28 685.359 1260.42 685.283C1259.52 685.204 1258.84 684.318 1258.91 683.303C1258.98 682.286 1259.78 681.537 1260.68 681.61C1262.03 681.728 1263.31 682.178 1264.48 682.94C1265.27 683.451 1265.54 684.58 1265.08 685.458C1264.78 686.046 1264.23 686.376 1263.66 686.376ZM1253.98 685.263H1250.69C1249.78 685.263 1249.05 684.44 1249.05 683.421C1249.05 682.402 1249.78 681.579 1250.69 681.579H1253.98C1254.89 681.579 1255.62 682.402 1255.62 683.421C1255.62 684.44 1254.89 685.263 1253.98 685.263ZM1244.12 685.263H1240.83C1239.92 685.263 1239.19 684.44 1239.19 683.421C1239.19 682.402 1239.92 681.579 1240.83 681.579H1244.12C1245.03 681.579 1245.76 682.402 1245.76 683.421C1245.76 684.44 1245.03 685.263 1244.12 685.263ZM1234.26 685.263H1230.98C1230.07 685.263 1229.33 684.44 1229.33 683.421C1229.33 682.402 1230.07 681.579 1230.98 681.579H1234.26C1235.17 681.579 1235.9 682.402 1235.9 683.421C1235.9 684.44 1235.17 685.263 1234.26 685.263ZM1224.4 685.263H1223.82C1222.7 685.261 1221.62 685.037 1220.59 684.598C1219.74 684.235 1219.32 683.171 1219.64 682.22C1219.97 681.268 1220.92 680.796 1221.76 681.155C1222.42 681.435 1223.11 681.577 1223.82 681.579H1224.4C1225.31 681.579 1226.05 682.402 1226.05 683.421C1226.05 684.44 1225.31 685.263 1224.4 685.263ZM1216.79 679.562C1216.1 679.562 1215.46 679.07 1215.23 678.294C1214.93 677.278 1214.78 676.213 1214.78 675.13C1214.78 674.691 1214.81 674.266 1214.85 673.851C1214.97 672.846 1215.76 672.136 1216.69 672.254C1217.59 672.379 1218.23 673.302 1218.11 674.312C1218.08 674.583 1218.07 674.861 1218.07 675.139C1218.07 675.821 1218.16 676.497 1218.35 677.143C1218.64 678.108 1218.17 679.151 1217.31 679.47C1217.13 679.534 1216.96 679.562 1216.79 679.562ZM1219.92 669.929C1219.37 669.929 1218.83 669.622 1218.52 669.062C1218.04 668.198 1218.28 667.061 1219.05 666.523C1220.2 665.718 1221.47 665.228 1222.82 665.061C1223.72 664.956 1224.53 665.68 1224.63 666.691C1224.73 667.702 1224.08 668.612 1223.18 668.725C1222.32 668.832 1221.51 669.143 1220.79 669.651C1220.52 669.839 1220.22 669.929 1219.92 669.929ZM1242.71 668.684H1239.43C1238.52 668.684 1237.78 667.861 1237.78 666.842C1237.78 665.823 1238.52 665 1239.43 665H1242.71C1243.62 665 1244.35 665.823 1244.35 666.842C1244.35 667.861 1243.62 668.684 1242.71 668.684ZM1232.85 668.684H1229.57C1228.66 668.684 1227.92 667.861 1227.92 666.842C1227.92 665.823 1228.66 665 1229.57 665H1232.85C1233.76 665 1234.5 665.823 1234.5 666.842C1234.5 667.861 1233.76 668.684 1232.85 668.684Z" fill="#ED8A19"/>
<path d="M1198.58 686.673C1191.36 677.776 1179.64 677.776 1172.42 686.673C1165.19 695.57 1165.19 709.995 1172.42 718.89L1185.5 735L1198.58 718.89C1205.81 709.993 1205.81 695.568 1198.58 686.673ZM1185.5 709.333C1180.86 709.333 1177.09 705.228 1177.09 700.166C1177.09 695.105 1180.86 691 1185.5 691C1190.14 691 1193.91 695.105 1193.91 700.166C1193.91 705.228 1190.14 709.333 1185.5 709.333Z" fill="#3083C9"/>
<path d="M1265.05 629.853C1259.77 623.382 1251.23 623.382 1245.95 629.853C1240.68 636.324 1240.68 646.813 1245.95 653.284L1255.5 665L1265.04 653.284C1270.32 646.815 1270.32 636.324 1265.05 629.853ZM1255.91 648.637C1251.76 648.637 1248.4 644.973 1248.4 640.455C1248.4 635.937 1251.76 632.273 1255.91 632.273C1260.06 632.273 1263.43 635.937 1263.43 640.455C1263.43 644.973 1260.06 648.637 1255.91 648.637Z" fill="#26B99A"/>
<path d="M169.771 118.022C170.759 117.058 170.779 115.476 169.815 114.487L154.107 98.3788C153.143 97.3903 151.56 97.3704 150.571 98.3344C149.583 99.2984 149.563 100.881 150.527 101.87L164.49 116.188L150.172 130.152C149.183 131.116 149.163 132.698 150.127 133.687C151.091 134.675 152.674 134.695 153.663 133.731L169.771 118.022ZM130.943 118.267L167.994 118.732L168.057 113.733L131.006 113.268L130.943 118.267Z" fill="#2646EC"/>
</g>
<defs>
<linearGradient id="paint0_linear" x1="1356.89" y1="466.704" x2="116.017" y2="473.527" gradientUnits="userSpaceOnUse">
<stop stop-opacity="0.12"/>
<stop offset="0.55" stop-opacity="0.09"/>
<stop offset="1" stop-opacity="0.02"/>
</linearGradient>
<clipPath id="clip0">
<rect width="1260.55" height="1520" fill="white" transform="translate(5.1131 1266.7) rotate(-90.2324)"/>
</clipPath>
<clipPath id="clip1">
<rect width="86" height="90.2589" fill="white" transform="matrix(1 0.000104121 0.000101515 1 148.019 188.58)"/>
</clipPath>
</defs>
</svg>
